<?xml version="1.0" encoding="UTF-8" standalone="no"?>

<svg
   width="159"
   height="159"
   viewBox="0 0 42.068749 42.068752"
   xmlns="http://www.w3.org/2000/svg">
  <g
     transform="translate(-58.819279,-140.52427)">
    <path
       style="fill:white;"
       d="m 92.884178,140.87377 c -1.903514,0 -3.4179,0.45951 -4.564595,1.33099 -1.146694,0.89443 -1.720256,2.08632 -1.720256,3.57702 0,0.45868 0.04636,0.87179 0.16104,1.26166 0.114664,0.38988 0.252731,0.7113 0.390335,0.98651 0.137614,0.27521 0.343353,0.52735 0.664428,0.77961 0.321075,0.22934 0.573729,0.43509 0.803069,0.57271 0.206405,0.13765 0.550228,0.27512 1.008906,0.45859 0.458678,0.16056 0.802496,0.27569 1.0089,0.34448 0.22934,0.0687 0.596069,0.18393 1.146483,0.34447 0.0688,0 0.138111,0.023 0.206902,0.0459 0.09174,0.023 0.137581,0.0453 0.183439,0.0683 0.04587,0 0.11409,0.0229 0.205831,0.0459 1.605373,0.45867 2.63735,0.80302 3.141896,1.07822 0.504546,0.25227 0.734813,0.66487 0.734813,1.2382 0,0.66508 -0.252655,1.19282 -0.803069,1.58269 -0.550414,0.38989 -1.284418,0.59617 -2.224708,0.59617 -2.385126,0 -3.623405,-1.03251 -3.692206,-3.07364 h -3.55463 c 0.02294,1.83471 0.665264,3.27929 1.903694,4.28838 0.619216,0.50454 1.364289,0.88954 2.230044,1.14754 -1.113463,0.38187 -2.228116,0.95003 -3.331734,1.6968 -2.207229,1.4935 -4.235974,3.63227 -6.020363,6.34777 h 3.55463 c 2.028434,-3.021 4.257003,-4.5486 6.642129,-4.5486 0.940289,0 1.476986,0.306 1.653069,0.88306 0.176106,0.57704 -0.07817,1.35768 -0.716684,2.34203 -0.550452,0.84858 -1.176165,1.45887 -1.922893,1.83223 -0.768766,0.40731 -2.131723,0.91659 -4.17746,1.59548 -0.11373,0.0341 -0.204767,0.0683 -0.250624,0.0683 -0.06786,0.0339 -0.134759,0.0675 -0.248495,0.10132 -0.09078,0.034 -0.181822,0.0683 -0.250628,0.0683 -0.704547,0.23761 -1.181773,0.40697 -1.477092,0.50872 -0.272448,0.10181 -0.726688,0.27213 -1.33952,0.50978 -0.634821,0.27156 -1.110803,0.4746 -1.449368,0.67829 -0.361455,0.20368 -0.812111,0.50948 -1.353378,0.84893 -0.563263,0.37337 -1.011277,0.74662 -1.413106,1.15395 -0.401824,0.40733 -0.848418,0.88301 -1.337385,1.46003 -0.488968,0.57704 -0.931149,1.1875 -1.371513,1.86637 -1.43118,2.20634 -2.002905,3.97132 -1.714926,5.29515 0.310017,1.28982 1.383422,1.96874 3.286941,1.96874 1.834713,0 3.744228,-0.64477 5.75054,-1.93462 1.983396,-1.28987 3.812648,-3.19108 5.531904,-5.7708 l -3.395714,-0.0331 c -1.700904,2.41 -3.503078,3.59729 -5.429526,3.59729 -0.82562,0 -1.313888,-0.23718 -1.464296,-0.71242 -0.150436,-0.4752 0.03757,-1.15446 0.61003,-2.03701 0.176149,-0.27155 0.398302,-0.54302 0.598308,-0.78066 0.200917,-0.20368 0.447446,-0.40741 0.740142,-0.6111 0.315571,-0.20364 0.563956,-0.33859 0.812674,-0.4746 0.271543,-0.13577 0.612455,-0.2714 1.0217,-0.4074 0.409147,-0.13578 0.794835,-0.27139 1.158211,-0.40739 0.341267,-0.10185 0.79614,-0.23784 1.409906,-0.44154 0.614634,-0.1697 1.137566,-0.33886 1.614678,-0.50872 2.045736,-0.67888 3.812193,-1.52743 5.252486,-2.54572 1.44031,-1.01831 2.777001,-2.47818 4.010021,-4.37902 0.880728,-1.35775 1.489033,-2.58003 1.759713,-3.59836 0.293603,-1.01827 0.29487,-1.83235 0.04909,-2.44334 -0.208529,-0.51826 -0.54616,-0.91403 -1.012106,-1.18807 0.643711,-0.18515 1.238475,-0.45292 1.783182,-0.80307 0.642149,-0.41282 1.169875,-0.96293 1.536817,-1.65094 0.389877,-0.68803 0.572709,-1.51425 0.572709,-2.43161 0,-1.2843 -0.389128,-2.27043 -1.168881,-2.95845 -0.779752,-0.68802 -1.996178,-1.26158 -3.601551,-1.72026 -0.366942,-0.11475 -0.779512,-0.22875 -1.284058,-0.34341 -0.481612,-0.13766 -0.848882,-0.22981 -1.124089,-0.29862 -0.275207,-0.0918 -0.572649,-0.18342 -0.893724,-0.27516 -0.321075,-0.0918 -0.57374,-0.18342 -0.757211,-0.27515 -0.160538,-0.0918 -0.320977,-0.18342 -0.504449,-0.32101 -0.160542,-0.13767 -0.274611,-0.27512 -0.343413,-0.41274 -0.04587,-0.16056 -0.09172,-0.34338 -0.09172,-0.52685 0,-0.59629 0.251608,-1.05578 0.710285,-1.37685 0.458679,-0.32108 1.100472,-0.48098 1.926093,-0.48098 1.926448,0 2.959495,0.80223 3.097098,2.43053 l 3.417048,-0.0224 c -0.04587,-1.74297 -0.642881,-3.0276 -1.789576,-3.8991 -1.169629,-0.87148 -2.659497,-1.30753 -4.49421,-1.30753 z m -16.954018,0.007 c -5.216088,13.57898 -10.758853,27.84843 -16.009415,41.36275 l 3.534344,-0.003 22.250515,-24.69307 -6.331291,-16.6709 z m 1.702076,4.32847 2.156453,6.07689 H 75.45339 Z m -3.050176,8.69194 h 6.077953 l 1.284065,3.64635 -4.785367,5.39645 h -6.076884 c 1.165603,-2.94461 2.333837,-5.97001 3.500233,-9.0428 z m -5.139439,12.91311 h 4.335306 l -7.991249,8.99483 z"/>
  </g>
</svg>
